<svg xmlns="http://www.w3.org/2000/svg" viewBox="0 0 100 100">
  <defs>
    <!-- Background Blue Gradient (Glossy) -->
    <linearGradient id="bgBlue" x1="0%" y1="0%" x2="0%" y2="100%">
      <stop offset="0%" stop-color="#38bdf8" />
      <stop offset="100%" stop-color="#1e3a8a" />
    </linearGradient>
    
    <!-- Printer Grey Gradient -->
    <linearGradient id="printerGrey" x1="0%" y1="0%" x2="0%" y2="100%">
      <stop offset="0%" stop-color="#f8fafc" />
      <stop offset="100%" stop-color="#cbd5e1" />
    </linearGradient>

    <!-- PDF Red Gradient -->
    <linearGradient id="pdfRed" x1="0%" y1="0%" x2="100%" y2="100%">
      <stop offset="0%" stop-color="#ef4444" />
      <stop offset="100%" stop-color="#991b1b" />
    </linearGradient>
    
    <!-- Yellow Data Gradient -->
    <linearGradient id="dataYellow" x1="0%" y1="0%" x2="0%" y2="100%">
      <stop offset="0%" stop-color="#facc15" />
      <stop offset="100%" stop-color="#ea580c" />
    </linearGradient>

    <filter id="shadow" x="-20%" y="-20%" width="140%" height="140%">
      <feGaussianBlur stdDeviation="2" result="blur" />
      <feComposite in="SourceGraphic" in2="blur" operator="over" />
    </filter>
  </defs>

  <!-- 1. Background Container (Blue Rounded Square) -->
  <rect x="5" y="10" width="90" height="85" rx="15" fill="url(#bgBlue)" stroke="#1e40af" stroke-width="1" />
  
  <!-- 2. Printer Structure (White/Grey) -->
  <!-- Main Body -->
  <path d="M15,65 L85,65 L85,82 Q85,88 79,88 L21,88 Q15,88 15,82 Z" fill="url(#printerGrey)" filter="url(#shadow)" />
  <!-- Paper Slot Area -->
  <rect x="20" y="55" width="60" height="15" rx="2" fill="#334155" opacity="0.8" />
  
  <!-- 3. The Label/Paper (White with Barcode) -->
  <!-- Paper Label -->
  <rect x="25" y="45" width="50" height="35" rx="1" fill="white" />
  <!-- Barcode Lines -->
  <g fill="#1e293b">
    <rect x="28" y="60" width="2" height="12" />
    <rect x="31" y="60" width="1" height="12" />
    <rect x="33" y="60" width="3" height="12" />
    <rect x="38" y="60" width="1" height="12" />
    <rect x="40" y="60" width="4" height="12" />
    <rect x="46" y="60" width="2" height="12" />
    <rect x="49" y="60" width="1" height="12" />
    <rect x="51" y="60" width="3" height="12" />
    <rect x="56" y="60" width="2" height="12" />
    <rect x="60" y="60" width="1" height="12" />
    <rect x="63" y="60" width="3" height="12" />
    <rect x="68" y="60" width="2" height="12" />
  </g>
  <!-- Data Fields on Label (Yellow/Orange) -->
  <rect x="28" y="48" width="12" height="8" rx="1" fill="url(#dataYellow)" stroke="#b45309" stroke-width="0.5" />
  <rect x="42" y="48" width="12" height="8" rx="1" fill="url(#dataYellow)" stroke="#b45309" stroke-width="0.5" />

  <!-- 4. Printer Top Detail -->
  <rect x="20" y="75" width="40" height="4" rx="2" fill="#94a3b8" />
  <circle cx="78" cy="77" r="3" fill="#3b82f6" />

  <!-- 5. PDF Badge (Top Right Overlay) -->
  <g transform="translate(60, 5) rotate(5)">
    <!-- Paper Shape -->
    <path d="M0,0 L20,0 L30,10 L30,35 L0,35 Z" fill="url(#pdfRed)" stroke="white" stroke-width="1.5" filter="url(#shadow)" />
    <!-- Folded Corner -->
    <path d="M20,0 L20,10 L30,10 Z" fill="#fca5a5" opacity="0.8" />
    <!-- Text -->
    <text x="15" y="26" font-family="Arial, sans-serif" font-weight="900" font-size="11" fill="white" text-anchor="middle">PDF</text>
    <!-- Sparkle -->
    <path d="M15,8 L16,6 L17,8 L19,9 L17,10 L16,12 L15,10 L13,9 Z" fill="white" />
  </g>

</svg>
